<?xml version="1.0" encoding="UTF-8"?>
<svg width="21px" height="21px" viewBox="0 0 21 21" version="1.1" xmlns="http://www.w3.org/2000/svg" xmlns:xlink="http://www.w3.org/1999/xlink">
    <title>crown copy</title>
    <g id="Symbols" stroke="none" stroke-width="1" fill="none" fill-rule="evenodd">
        <g id="crown-copy">
            <g id="Group">
                <rect id="Rectangle" fill="#FFFFFF" x="3.5" y="4.5" width="14" height="12"></rect>
                <path d="M10.5,0 C4.710125,0 0,4.710125 0,10.5 C0,16.289875 4.710125,21 10.5,21 C16.289875,21 21,16.289875 21,10.5 C21,4.710125 16.289875,0 10.5,0 Z M16.615375,8.7885 L15.66425,14.329875 C15.61,14.644875 15.337,14.875 15.017625,14.875 L5.982375,14.875 C5.663,14.875 5.39,14.644875 5.33575,14.329875 L4.384625,8.7885 C4.342625,8.546125 4.440625,8.30025 4.6375,8.152375 C4.83525,8.003625 5.096875,7.98 5.319125,8.087625 L7.851375,9.3205 L9.926875,5.586875 C10.157875,5.1695 10.843,5.1695 11.074,5.586875 L13.1495,9.3205 L15.68175,8.087625 C15.903125,7.98 16.165625,8.003625 16.363375,8.152375 C16.559375,8.30025 16.657375,8.546125 16.615375,8.7885 L16.615375,8.7885 Z" id="Shape" fill="#00B05A" fill-rule="nonzero"></path>
            </g>
        </g>
    </g>
</svg>